<svg xmlns="http://www.w3.org/2000/svg" width="43" height="43" viewBox="0 0 43 43">
  <path id="Exclusion_2" data-name="Exclusion 2" d="M-506.5,43a21.364,21.364,0,0,1-8.369-1.69A21.429,21.429,0,0,1-521.7,36.7a21.43,21.43,0,0,1-4.608-6.834A21.365,21.365,0,0,1-528,21.5a21.366,21.366,0,0,1,1.69-8.369A21.429,21.429,0,0,1-521.7,6.3a21.429,21.429,0,0,1,6.834-4.608A21.365,21.365,0,0,1-506.5,0a21.366,21.366,0,0,1,8.369,1.69A21.427,21.427,0,0,1-491.3,6.3a21.427,21.427,0,0,1,4.608,6.834A21.366,21.366,0,0,1-485,21.5a21.365,21.365,0,0,1-1.69,8.369A21.429,21.429,0,0,1-491.3,36.7a21.428,21.428,0,0,1-6.834,4.608A21.365,21.365,0,0,1-506.5,43Zm.194-28.926a3.071,3.071,0,0,1-1.123,2.056,7.185,7.185,0,0,1-2.656.62V18.1h3.291V28h1.875V14.074Z" transform="translate(528)" fill="#fff"/>
</svg>
