<svg xmlns="http://www.w3.org/2000/svg" width="43" height="43" viewBox="0 0 43 43">
  <path id="Exclusion_3" data-name="Exclusion 3" d="M-506.5,43a21.364,21.364,0,0,1-8.369-1.69A21.429,21.429,0,0,1-521.7,36.7a21.43,21.43,0,0,1-4.608-6.834A21.365,21.365,0,0,1-528,21.5a21.366,21.366,0,0,1,1.69-8.369A21.429,21.429,0,0,1-521.7,6.3a21.429,21.429,0,0,1,6.834-4.608A21.365,21.365,0,0,1-506.5,0a21.366,21.366,0,0,1,8.369,1.69A21.427,21.427,0,0,1-491.3,6.3a21.427,21.427,0,0,1,4.608,6.834A21.366,21.366,0,0,1-485,21.5a21.365,21.365,0,0,1-1.69,8.369A21.429,21.429,0,0,1-491.3,36.7a21.428,21.428,0,0,1-6.834,4.608A21.365,21.365,0,0,1-506.5,43Zm.165-27.422a2.682,2.682,0,0,1,1.953.718,2.6,2.6,0,0,1,.732,1.938,2.578,2.578,0,0,1-.8,1.856,8.9,8.9,0,0,1-1.768,1.25l-1.876,1.084a6.081,6.081,0,0,0-2.534,2.432A8.189,8.189,0,0,0-511.375,28h9.6v-1.66h-7.637a3.681,3.681,0,0,1,1.23-1.885,8.689,8.689,0,0,1,1.5-1.005l1.337-.743a11.664,11.664,0,0,0,2.452-1.679,3.949,3.949,0,0,0,1.182-2.871,4.365,4.365,0,0,0-1.109-2.891,4.391,4.391,0,0,0-3.511-1.3A4.245,4.245,0,0,0-510.359,16a6.309,6.309,0,0,0-.674,2.978h1.787a4.922,4.922,0,0,1,.41-2.031A2.561,2.561,0,0,1-506.336,15.578Z" transform="translate(528)" fill="#fff"/>
</svg>
