<svg xmlns="http://www.w3.org/2000/svg" width="43" height="43" viewBox="0 0 43 43">
  <path id="Exclusion_4" data-name="Exclusion 4" d="M-506.5,43a21.364,21.364,0,0,1-8.369-1.69A21.429,21.429,0,0,1-521.7,36.7a21.43,21.43,0,0,1-4.608-6.834A21.365,21.365,0,0,1-528,21.5a21.366,21.366,0,0,1,1.69-8.369A21.429,21.429,0,0,1-521.7,6.3a21.429,21.429,0,0,1,6.834-4.608A21.365,21.365,0,0,1-506.5,0a21.366,21.366,0,0,1,8.369,1.69A21.427,21.427,0,0,1-491.3,6.3a21.427,21.427,0,0,1,4.608,6.834A21.366,21.366,0,0,1-485,21.5a21.365,21.365,0,0,1-1.69,8.369A21.429,21.429,0,0,1-491.3,36.7a21.428,21.428,0,0,1-6.834,4.608A21.365,21.365,0,0,1-506.5,43Zm-5.021-19.3a5.079,5.079,0,0,0,1.118,3.316,4.413,4.413,0,0,0,3.6,1.362,5.225,5.225,0,0,0,3.74-1.259,4.332,4.332,0,0,0,1.318-3.263,3.543,3.543,0,0,0-.62-2.114,3.044,3.044,0,0,0-1.724-1.166,2.928,2.928,0,0,0,1.113-.781,3.1,3.1,0,0,0,.694-2.091,3.359,3.359,0,0,0-1.173-2.758,5.146,5.146,0,0,0-3.31-.952,3.957,3.957,0,0,0-3.779,1.953,5.3,5.3,0,0,0-.626,2.657h1.739a4.088,4.088,0,0,1,.419-1.836A2.575,2.575,0,0,1-506.58,15.6a2.786,2.786,0,0,1,1.729.566,1.915,1.915,0,0,1,.742,1.611,2,2,0,0,1-1.112,1.954,3.7,3.7,0,0,1-1.622.312c-.136,0-.271,0-.4-.01s-.26-.018-.459-.039v1.552l.061,0c.094,0,.2-.008.305-.011s.24-.005.356-.005a4.489,4.489,0,0,1,2.456.576,2.237,2.237,0,0,1,.884,2.021,2.448,2.448,0,0,1-.84,1.914,3.252,3.252,0,0,1-2.227.743,2.681,2.681,0,0,1-2.47-1.1,4.586,4.586,0,0,1-.508-1.973Z" transform="translate(528)" fill="#fff"/>
</svg>
