<svg xmlns="http://www.w3.org/2000/svg" width="43" height="43" viewBox="0 0 43 43">
  <path id="Exclusion_6" data-name="Exclusion 6" d="M-3146.5,43a21.365,21.365,0,0,1-8.369-1.69A21.429,21.429,0,0,1-3161.7,36.7a21.431,21.431,0,0,1-4.608-6.834A21.364,21.364,0,0,1-3168,21.5a21.366,21.366,0,0,1,1.689-8.369A21.43,21.43,0,0,1-3161.7,6.3a21.428,21.428,0,0,1,6.834-4.608A21.366,21.366,0,0,1-3146.5,0a21.366,21.366,0,0,1,8.369,1.69A21.429,21.429,0,0,1-3131.3,6.3a21.43,21.43,0,0,1,4.608,6.834A21.364,21.364,0,0,1-3125,21.5a21.363,21.363,0,0,1-1.69,8.369A21.431,21.431,0,0,1-3131.3,36.7a21.43,21.43,0,0,1-6.834,4.608A21.365,21.365,0,0,1-3146.5,43Zm-4.855-18.564h0a3.834,3.834,0,0,0,1.47,2.954,5.007,5.007,0,0,0,3.022.962,4.762,4.762,0,0,0,3.911-1.514,5.419,5.419,0,0,0,1.226-3.5,4.12,4.12,0,0,0-1.338-3.145,4.645,4.645,0,0,0-3.261-1.24,4.738,4.738,0,0,0-1.806.322,4.418,4.418,0,0,0-.928.557l.6-3.887h5.947v-1.7h-7.266l-1.065,7.529,1.524.088a3.351,3.351,0,0,1,1.109-.977,3.231,3.231,0,0,1,1.557-.352,3.116,3.116,0,0,1,2.144.8,2.9,2.9,0,0,1,.894,2.265,3.6,3.6,0,0,1-.752,2.208,2.725,2.725,0,0,1-2.314,1,3.387,3.387,0,0,1-1.445-.293,2.446,2.446,0,0,1-1.4-2.08Z" transform="translate(3168)" fill="#fff"/>
</svg>
